<svg xmlns="http://www.w3.org/2000/svg" width="113" height="40"><path fill="#2b8497" d="M2.186 34.69h.607l.636 3.863h-.5l-.186-1.112h-1.56l-.618 1.112H0zm-.782 2.354H2.68l-.15-.97a10.492 10.492 0 01-.108-.963 7.033 7.033 0 01-.384.788zm4.64-2.354h1.163c.279 0 .492.02.64.06a1.23 1.23 0 01.875.815c.075.209.113.444.113.703a2.452 2.452 0 01-.509 1.525c-.152.195-.31.347-.476.457a1.82 1.82 0 01-.588.244 2.84 2.84 0 01-.634.06H5.24zm-.197 3.426h.61c.276 0 .52-.026.734-.076.134-.032.248-.079.342-.14.125-.08.238-.184.34-.313.133-.173.24-.369.319-.59.08-.22.12-.47.12-.752 0-.313-.055-.553-.164-.721a.776.776 0 00-.415-.333c-.124-.04-.318-.061-.581-.061H6.47zm3.787-2.361h.476l-.584 2.798H9.05zm.11-.525l.113-.54h.474l-.113.54zm1.223 3.329l-.457-2.799h.463l.24 1.542c.026.169.058.444.097.825.09-.199.207-.427.35-.683l.933-1.684h.502l-1.599 2.799h-.529m2.557-2.804H14l-.584 2.798h-.476zm.11-.525l.114-.54h.473l-.113.54zm.556 2.366l.477-.03c0 .138.021.255.063.351.043.097.12.177.233.238a.819.819 0 00.396.092c.21 0 .368-.042.473-.126.105-.085.158-.184.158-.298a.357.357 0 00-.095-.235c-.065-.074-.223-.164-.474-.272a4.597 4.597 0 01-.483-.228.778.778 0 01-.265-.255.63.63 0 01-.09-.336.74.74 0 01.263-.57c.175-.158.42-.237.736-.237.35 0 .618.082.801.244a.85.85 0 01.285.642l-.465.031a.535.535 0 00-.179-.4c-.112-.098-.27-.147-.476-.147-.165 0-.293.037-.384.113-.091.075-.137.157-.137.245s.04.165.119.232c.053.046.188.116.407.211.365.158.595.283.69.374.15.146.226.324.226.532a.753.753 0 01-.128.41.872.872 0 01-.39.319c-.174.08-.379.12-.616.12-.323 0-.597-.08-.823-.24-.226-.16-.333-.42-.321-.78m3.223-1.841h.476l-.584 2.798h-.476zm.11-.525l.113-.54h.474l-.113.54zm1.077.904c.265-.296.612-.444 1.042-.444.336 0 .607.106.814.316.206.211.309.497.309.855 0 .322-.065.62-.195.897a1.45 1.45 0 01-1.31.858 1.25 1.25 0 01-.593-.14.963.963 0 01-.407-.395 1.209 1.209 0 01-.141-.59c0-.547.16-1 .481-1.357zm-.005 1.31c0 .263.063.463.188.599a.622.622 0 00.479.204c.1 0 .201-.02.3-.062a.862.862 0 00.277-.188c.086-.085.159-.18.219-.289a1.72 1.72 0 00.145-.349c.054-.174.08-.341.08-.5 0-.254-.062-.45-.189-.59a.616.616 0 00-.477-.21.792.792 0 00-.405.107 1.107 1.107 0 00-.331.313c-.098.137-.17.296-.217.478-.046.182-.07.344-.07.486zm2.444 1.108l.584-2.798h.431l-.102.487c.187-.191.363-.33.526-.419.163-.088.33-.132.499-.132.226 0 .404.062.533.185a.652.652 0 01.193.493c0 .104-.023.267-.069.49l-.355 1.694h-.475l.37-1.773c.037-.172.056-.3.056-.382a.29.29 0 00-.096-.227c-.064-.058-.157-.087-.278-.087a.932.932 0 00-.65.264c-.19.175-.33.476-.42.904l-.271 1.301h-.476m5.051-2.418c.265-.296.612-.444 1.042-.444.336 0 .607.106.813.316.206.211.31.497.31.855 0 .322-.065.62-.195.897a1.45 1.45 0 01-1.31.858 1.25 1.25 0 01-.593-.14.963.963 0 01-.408-.395 1.214 1.214 0 01-.14-.59c0-.547.16-1 .481-1.357zm-.005 1.31c0 .263.063.463.188.599a.622.622 0 00.479.204.786.786 0 00.3-.062.862.862 0 00.277-.188c.086-.085.159-.18.219-.289a1.72 1.72 0 00.145-.349c.054-.174.08-.341.08-.5 0-.254-.062-.45-.189-.59a.615.615 0 00-.477-.21.789.789 0 00-.405.107 1.091 1.091 0 00-.33.313c-.1.137-.171.296-.218.478a2.01 2.01 0 00-.069.486zm2.504 1.116l.508-2.43h-.426l.076-.369h.425l.082-.398c.042-.199.086-.342.13-.43a.528.528 0 01.219-.217.84.84 0 01.411-.086c.121 0 .296.026.526.077l-.086.416a1.66 1.66 0 00-.405-.063c-.093 0-.164.023-.212.07-.049.047-.09.156-.125.331l-.063.3h.531l-.076.369h-.532l-.507 2.43h-.476m2.96-.007l.804-3.863h.516l-.713 3.426h2.001l-.092.437H31.55m3.522-2.419c.264-.296.611-.444 1.04-.444.337 0 .609.106.815.316.206.211.309.497.309.855 0 .322-.065.62-.195.897a1.451 1.451 0 01-1.31.858 1.25 1.25 0 01-.593-.14.962.962 0 01-.407-.395 1.209 1.209 0 01-.141-.59c0-.547.16-1 .482-1.357zm-.006 1.31c0 .263.063.463.188.599a.622.622 0 00.479.204.786.786 0 00.3-.062.862.862 0 00.277-.188c.086-.085.159-.18.219-.289a1.72 1.72 0 00.145-.349c.054-.174.08-.341.08-.5 0-.254-.062-.45-.189-.59a.615.615 0 00-.477-.21.789.789 0 00-.405.107 1.096 1.096 0 00-.33.313c-.1.137-.171.296-.218.478a2.01 2.01 0 00-.069.486zm4.343.609c-.335.38-.678.57-1.028.57a.734.734 0 01-.522-.187.598.598 0 01-.199-.454c0-.118.03-.32.09-.606l.336-1.616h.476l-.373 1.79a1.778 1.778 0 00-.048.348c0 .105.032.187.097.246.063.059.157.088.282.088a.843.843 0 00.39-.098c.128-.064.237-.152.33-.263a1.4 1.4 0 00.224-.393 3.55 3.55 0 00.134-.508l.253-1.21h.476l-.584 2.799h-.44l.106-.506m1.654-2.298h.476l-.583 2.798h-.476zm.11-.525l.114-.54h.473l-.113.54zm.568 2.366l.476-.03c0 .138.02.255.063.351a.5.5 0 00.233.238.819.819 0 00.395.092c.211 0 .369-.042.474-.126.105-.085.158-.184.158-.298a.355.355 0 00-.095-.235c-.065-.074-.223-.164-.474-.272a4.599 4.599 0 01-.483-.228.778.778 0 01-.266-.255.63.63 0 01-.09-.336c0-.222.088-.411.264-.57.175-.158.42-.237.736-.237.35 0 .618.082.8.244a.85.85 0 01.286.642l-.465.031a.535.535 0 00-.18-.4c-.111-.098-.27-.147-.475-.147-.165 0-.293.037-.384.113-.091.075-.137.157-.137.245s.04.165.119.232c.052.046.188.116.407.211.365.158.594.283.689.374.15.146.226.324.226.532a.756.756 0 01-.127.41.874.874 0 01-.39.319c-.174.08-.38.12-.616.12-.323 0-.597-.08-.823-.24-.226-.16-.334-.42-.321-.78m3.213-1.841h.476l-.584 2.798h-.476zm.11-.525l.114-.54h.473l-.113.54zm1.925 3.287c-.153.066-.316.1-.49.1-.257 0-.465-.077-.623-.229a.777.777 0 01-.236-.584.8.8 0 01.389-.705c.118-.072.261-.125.431-.157.107-.02.31-.038.61-.05.298-.011.513-.044.642-.095.037-.13.055-.238.055-.324 0-.11-.04-.198-.12-.26-.111-.089-.273-.133-.485-.133a.84.84 0 00-.49.134.754.754 0 00-.278.378l-.48-.043a1.26 1.26 0 01.466-.637c.213-.148.481-.222.806-.222.345 0 .619.083.82.249a.58.58 0 01.232.479c0 .15-.022.322-.066.52l-.155.695a2.622 2.622 0 00-.074.54c0 .088.02.215.058.38h-.48a1.718 1.718 0 01-.056-.348 1.884 1.884 0 01-.476.312zm.652-1.382a1.156 1.156 0 01-.214.061 5.074 5.074 0 01-.383.046 2.911 2.911 0 00-.587.094.493.493 0 00-.257.182.474.474 0 00-.087.276.44.44 0 00.138.333c.092.086.223.13.393.13a.89.89 0 00.455-.127.91.91 0 00.345-.352c.084-.15.15-.365.197-.643zm.939 1.417l.583-2.798h.432l-.103.487a2.34 2.34 0 01.526-.419c.163-.088.33-.132.5-.132.226 0 .404.062.532.185a.652.652 0 01.194.493c0 .104-.023.267-.069.49l-.355 1.694h-.476l.37-1.773c.038-.172.056-.3.056-.382a.29.29 0 00-.096-.227c-.064-.058-.156-.087-.277-.087a.93.93 0 00-.65.264c-.191.175-.331.476-.42.904l-.271 1.301h-.476m4.409-.035c-.153.066-.315.1-.489.1-.258 0-.466-.077-.624-.229a.777.777 0 01-.236-.584.8.8 0 01.39-.705 1.25 1.25 0 01.43-.157c.107-.02.31-.038.61-.05.298-.011.513-.044.642-.095.037-.13.056-.238.056-.324a.313.313 0 00-.121-.26c-.111-.089-.272-.133-.484-.133-.2 0-.364.045-.491.134a.756.756 0 00-.277.378l-.481-.043c.098-.277.253-.49.466-.637.213-.148.482-.222.806-.222.346 0 .62.083.82.249a.583.583 0 01.232.479c0 .15-.021.322-.065.52l-.156.695a2.617 2.617 0 00-.073.54c0 .088.02.215.058.38h-.482a1.784 1.784 0 01-.055-.348 1.868 1.868 0 01-.476.312zm.652-1.382a1.156 1.156 0 01-.214.061 5.085 5.085 0 01-.383.046 2.91 2.91 0 00-.586.094.491.491 0 00-.258.182.475.475 0 00-.087.276c0 .135.046.246.139.333.091.086.222.13.392.13a.89.89 0 00.455-.127.91.91 0 00.345-.352c.084-.15.15-.365.197-.643zm2.489 1.418l.807-3.863h2.782l-.091.44H57.36l-.253 1.202h2.208l-.091.44h-2.209l-.279 1.344h2.428l-.093.437H56.13m5.454-1.02l.476.05c-.12.35-.29.61-.508.78a1.21 1.21 0 01-.752.253c-.303 0-.549-.098-.737-.295-.189-.197-.283-.472-.283-.825 0-.306.06-.606.181-.901.122-.296.295-.52.52-.674.225-.154.482-.231.772-.231.3 0 .537.085.712.255.175.17.263.394.263.674l-.468.03a.566.566 0 00-.154-.416.541.541 0 00-.398-.15.73.73 0 00-.497.182c-.14.121-.25.305-.33.553-.08.246-.12.484-.12.712 0 .24.053.418.158.538.105.12.235.18.389.18a.684.684 0 00.444-.178c.14-.117.251-.297.332-.537m1.338-1.399c.264-.296.611-.444 1.041-.444.336 0 .607.106.813.316.207.211.31.497.31.855 0 .322-.065.62-.195.897a1.446 1.446 0 01-1.31.858c-.217 0-.414-.046-.593-.14a.96.96 0 01-.407-.395 1.204 1.204 0 01-.141-.59c0-.547.16-1 .482-1.357zm-.006 1.31c0 .263.063.463.188.599a.623.623 0 00.48.204c.1 0 .2-.02.3-.062a.862.862 0 00.277-.188c.085-.085.158-.18.217-.289.061-.108.11-.224.145-.349.055-.174.082-.341.082-.5 0-.254-.063-.45-.19-.59a.617.617 0 00-.477-.21.79.79 0 00-.405.107 1.086 1.086 0 00-.33.313 1.406 1.406 0 00-.218.478 2.01 2.01 0 00-.069.486zm2.434 1.108l.584-2.798h.432l-.103.487c.187-.191.363-.33.526-.419.163-.088.33-.132.5-.132.225 0 .403.062.532.185a.651.651 0 01.193.493c0 .104-.023.267-.068.49l-.355 1.694h-.476l.37-1.773c.037-.172.055-.3.055-.382a.29.29 0 00-.095-.227c-.064-.058-.156-.087-.278-.087a.933.933 0 00-.65.264c-.191.175-.33.476-.42.904l-.271 1.301h-.476m3.561-2.418c.265-.296.612-.444 1.042-.444.336 0 .607.106.813.316.206.211.31.497.31.855 0 .322-.065.62-.195.897a1.448 1.448 0 01-1.31.858 1.25 1.25 0 01-.593-.14.96.96 0 01-.407-.395 1.204 1.204 0 01-.141-.59c0-.547.16-1 .481-1.357zm-.005 1.31c0 .263.063.463.188.599a.624.624 0 00.48.204c.1 0 .2-.02.3-.062a.862.862 0 00.276-.188 1.22 1.22 0 00.218-.289c.06-.108.11-.224.145-.349.055-.174.081-.341.081-.5 0-.254-.062-.45-.188-.59a.618.618 0 00-.478-.21.794.794 0 00-.405.107 1.09 1.09 0 00-.33.313 1.385 1.385 0 00-.217.478c-.047.182-.07.344-.07.486zm2.434 1.108l.584-2.798h.476l-.097.46c.177-.198.335-.335.475-.41a.936.936 0 01.453-.114.68.68 0 01.435.14c.116.091.193.22.23.385.142-.176.291-.307.448-.395.158-.086.323-.13.496-.13.233 0 .409.056.525.166.116.112.174.266.174.467 0 .087-.02.228-.06.427l-.376 1.802h-.476l.385-1.85c.032-.15.049-.259.049-.323a.276.276 0 00-.087-.217.348.348 0 00-.244-.079.856.856 0 00-.435.13.936.936 0 00-.342.338c-.081.14-.153.355-.214.645l-.284 1.356h-.476l.394-1.89c.028-.127.042-.219.042-.273a.298.298 0 00-.085-.222.303.303 0 00-.222-.084.85.85 0 00-.426.13 1.012 1.012 0 00-.36.36c-.094.153-.17.372-.23.657l-.276 1.322h-.476m5.054-2.797h.476l-.584 2.798h-.476zm.11-.525l.114-.54h.472l-.113.54zm2.45 2.303l.476.05c-.119.35-.288.61-.51.78a1.2 1.2 0 01-.75.253c-.303 0-.549-.098-.737-.295-.188-.197-.283-.472-.283-.825 0-.306.061-.606.182-.901.12-.296.294-.52.52-.674.225-.154.482-.231.77-.231.3 0 .539.085.714.255.175.17.262.394.262.674l-.467.03c-.003-.177-.053-.316-.155-.416a.54.54 0 00-.397-.15.733.733 0 00-.498.182c-.14.121-.25.305-.33.553-.08.246-.12.484-.12.712 0 .24.053.418.158.538a.5.5 0 00.39.18c.154 0 .301-.06.443-.178.14-.117.252-.297.332-.537m3.121-2.843h1.162c.28 0 .492.02.64.06.21.055.39.152.538.291.15.14.262.315.337.524.075.209.113.444.113.703 0 .311-.047.595-.14.85-.094.256-.217.48-.369.675-.152.195-.31.347-.476.457a1.8 1.8 0 01-.588.244c-.17.04-.383.06-.634.06H81.27zm-.197 3.426h.61c.275 0 .52-.026.733-.076a1.08 1.08 0 00.342-.14c.125-.08.238-.184.34-.313a2.17 2.17 0 00.32-.59c.079-.22.119-.47.119-.752 0-.313-.055-.553-.163-.721a.775.775 0 00-.416-.333c-.124-.04-.318-.061-.581-.061h-.681zm5.736-.466c-.067.229-.22.448-.46.655a1.261 1.261 0 01-.855.311c-.207 0-.396-.048-.569-.143a.944.944 0 01-.395-.418 1.397 1.397 0 01-.135-.625c0-.305.07-.602.211-.89.142-.287.324-.5.55-.64.223-.14.466-.21.727-.21.334 0 .599.104.799.311.199.208.298.49.298.849 0 .137-.012.278-.037.422h-2.056a1.055 1.055 0 00-.01.147c0 .262.06.462.18.6a.56.56 0 00.44.207.845.845 0 00.48-.16c.159-.108.281-.263.37-.465zm-1.846-.742h1.567l.003-.106c0-.238-.06-.422-.178-.55a.604.604 0 00-.46-.19c-.204 0-.39.07-.557.21-.168.142-.293.353-.375.636zm3.029 1.651l-.457-2.799h.462l.24 1.542c.026.169.058.444.097.825.091-.199.208-.427.35-.683l.933-1.684h.503l-1.6 2.799h-.528m4.507-.909c-.067.229-.22.448-.46.655a1.261 1.261 0 01-.854.311 1.16 1.16 0 01-.57-.143.948.948 0 01-.395-.418 1.39 1.39 0 01-.135-.625c0-.305.07-.602.211-.89.142-.287.324-.5.55-.64.223-.14.466-.21.728-.21.332 0 .598.104.797.311.2.208.299.49.299.849 0 .137-.012.278-.037.422h-2.056c-.007.054-.01.103-.01.147 0 .262.06.462.18.6a.56.56 0 00.44.207.849.849 0 00.481-.16c.158-.108.28-.263.368-.465zm-1.846-.742h1.567l.003-.106c0-.238-.06-.422-.178-.55a.604.604 0 00-.461-.19.845.845 0 00-.556.21c-.168.142-.292.353-.375.636zm2.292 1.645l.805-3.863h.476l-.805 3.863h-.476m1.801-2.419c.265-.296.613-.444 1.041-.444.337 0 .609.106.815.316.206.211.308.497.308.855 0 .322-.065.62-.194.897a1.45 1.45 0 01-1.31.858 1.25 1.25 0 01-.593-.14.966.966 0 01-.408-.395 1.214 1.214 0 01-.14-.59c0-.547.161-1 .481-1.357zm-.005 1.31c0 .263.063.463.189.599a.62.62 0 00.478.204c.1 0 .2-.02.3-.062a.869.869 0 00.277-.188 1.28 1.28 0 00.219-.289 1.73 1.73 0 00.145-.349c.054-.174.08-.341.08-.5 0-.254-.062-.45-.19-.59a.614.614 0 00-.476-.21.789.789 0 00-.405.107 1.103 1.103 0 00-.331.313c-.099.137-.17.296-.217.478-.046.182-.07.344-.07.486zm3.002-1.69h.439l-.082.39c.164-.17.31-.289.438-.355a.89.89 0 01.409-.099c.266 0 .487.098.662.292.175.193.264.472.264.834 0 .292-.05.558-.146.798-.096.24-.214.432-.354.578a1.51 1.51 0 01-.426.322 1.018 1.018 0 01-.442.102c-.335 0-.594-.17-.779-.511l-.315 1.52h-.476zm.134 1.655c0 .21.014.354.044.435a.587.587 0 00.563.382c.273 0 .494-.154.663-.462a1.95 1.95 0 00.252-.945c0-.237-.056-.42-.17-.55a.538.538 0 00-.421-.193.626.626 0 00-.337.096.99.99 0 00-.289.287 1.724 1.724 0 00-.218.468 1.645 1.645 0 00-.087.482zm2.288 1.143l.584-2.798h.476l-.098.46c.177-.198.336-.335.475-.41a.941.941 0 01.454-.114c.173 0 .318.047.435.14.117.091.193.22.23.385a1.6 1.6 0 01.448-.395c.157-.086.322-.13.496-.13.233 0 .408.056.525.166.117.112.174.266.174.467 0 .087-.02.228-.06.427l-.375 1.802h-.477l.384-1.85c.033-.15.05-.259.05-.323a.277.277 0 00-.087-.217.35.35 0 00-.244-.079.853.853 0 00-.434.13.935.935 0 00-.344.338c-.081.14-.152.355-.214.645l-.284 1.356h-.476l.395-1.89a1.49 1.49 0 00.042-.273.3.3 0 00-.085-.222.305.305 0 00-.223-.084.846.846 0 00-.424.13 1.021 1.021 0 00-.362.36c-.093.153-.17.372-.229.657l-.276 1.322h-.476m7.004-.902c-.067.229-.22.448-.459.655-.24.207-.525.311-.856.311a1.16 1.16 0 01-.57-.143.944.944 0 01-.394-.418 1.397 1.397 0 01-.135-.625c0-.305.07-.602.212-.89.14-.287.323-.5.548-.64.224-.14.467-.21.728-.21.333 0 .6.104.798.311.2.208.299.49.299.849 0 .137-.012.278-.037.422h-2.057a1.36 1.36 0 00-.01.147c0 .262.06.462.18.6.12.138.267.207.44.207a.847.847 0 00.482-.16c.157-.108.28-.263.368-.465zm-1.846-.742h1.567l.003-.106c0-.238-.06-.422-.18-.55a.602.602 0 00-.46-.19.844.844 0 00-.555.21c-.168.142-.293.353-.375.636zm2.322 1.644l.584-2.798h.432l-.103.487c.187-.191.363-.33.526-.419.163-.088.33-.132.5-.132.225 0 .403.062.532.185a.65.65 0 01.193.493c0 .104-.023.267-.068.49l-.355 1.694h-.476l.37-1.773c.037-.172.055-.3.055-.382a.29.29 0 00-.095-.227c-.064-.058-.157-.087-.278-.087a.932.932 0 00-.65.264c-.191.175-.33.476-.42.904l-.271 1.301h-.476m4.108-.383l-.079.39c-.114.03-.224.045-.331.045a.687.687 0 01-.452-.14.354.354 0 01-.126-.287c0-.061.022-.203.068-.424l.34-1.627h-.377l.076-.368h.376l.145-.688.544-.33-.213 1.018h.468l-.079.368h-.465l-.323 1.548a2.85 2.85 0 00-.06.353c0 .056.015.1.048.129.033.03.086.045.16.045.104 0 .198-.011.28-.032M.11 21.937c0-.124.1-.237.237-.237h5.165c.137 0 .237.113.237.237V23.3c0 .125-.1.238-.237.238H2.056v1.55H4.9c.125 0 .237.113.237.238v1.363a.237.237 0 01-.237.238H2.056v1.688h3.456c.137 0 .237.112.237.237v1.364c0 .124-.1.237-.237.237H.347a.237.237 0 01-.237-.237v-8.279m8.46-.142c0-.125.112-.225.237-.225h.312l4.978 4.802h.012v-4.44c0-.124.1-.237.237-.237h1.497c.125 0 .237.113.237.238v8.415c0 .125-.112.225-.237.225h-.2a.365.365 0 01-.162-.062l-4.927-4.964h-.013v4.664c0 .124-.1.237-.237.237H8.819a.246.246 0 01-.236-.237l-.013-8.416m11.94 1.743h-1.783a.237.237 0 01-.237-.238v-1.363c0-.124.1-.237.237-.237h5.539c.137 0 .237.113.237.237V23.3c0 .125-.1.238-.237.238h-1.784v6.678a.246.246 0 01-.237.237h-1.497a.246.246 0 01-.237-.237v-6.678m6.399-1.601c0-.124.1-.237.237-.237h5.165c.137 0 .237.113.237.237V23.3c0 .125-.1.238-.237.238h-3.456v1.55H31.7c.125 0 .238.113.238.238v1.363a.237.237 0 01-.238.238h-2.844v1.688h3.456c.137 0 .237.112.237.237v1.364c0 .124-.1.237-.237.237h-5.165a.237.237 0 01-.237-.237v-8.279m8.717-.237h3.73c1.497 0 2.72 1.213 2.72 2.7 0 1.151-.761 2.077-1.847 2.514l1.71 3.177c.087.162 0 .362-.213.362h-1.66a.23.23 0 01-.199-.113l-1.659-3.313h-.86v3.189a.246.246 0 01-.238.237h-1.484a.237.237 0 01-.237-.237v-8.279c0-.124.1-.237.237-.237zm3.568 3.739c.511 0 .948-.476.948-1.001a.956.956 0 00-.948-.95h-1.846v1.95zm6.586-1.901h-1.784a.237.237 0 01-.237-.238v-1.363c0-.124.1-.237.237-.237h5.539c.137 0 .237.113.237.237V23.3c0 .125-.1.238-.237.238h-1.784v6.678a.246.246 0 01-.237.237h-1.497a.246.246 0 01-.237-.237v-6.678m8.479-1.83a.253.253 0 01.212-.138h.125c.087 0 .175.063.212.138l3.905 8.415c.075.163-.025.325-.212.325h-1.385c-.225 0-.325-.075-.437-.312l-.449-.988h-3.393l-.45 1c-.062.15-.2.3-.449.3h-1.372c-.187 0-.287-.162-.212-.325zm1.212 5.749l-.943-2.073h-.012l-.93 2.073zm5.428-5.52c0-.124.112-.237.237-.237h1.497c.125 0 .237.113.237.237v8.279a.246.246 0 01-.237.237h-1.497a.246.246 0 01-.237-.237v-8.279m5.27-.142c0-.125.113-.225.237-.225h.312l4.978 4.802h.012v-4.44c0-.124.1-.237.237-.237h1.497c.125 0 .238.113.238.238v8.415c0 .125-.113.225-.238.225h-.199a.363.363 0 01-.162-.062l-4.928-4.964h-.013v4.664c0 .124-.1.237-.237.237H66.42a.246.246 0 01-.237-.237l-.013-8.416m11.433-.025a.24.24 0 01.225-.2h.199c.063 0 .175.05.213.125l2.894 5.402h.025l2.894-5.402c.037-.075.15-.125.212-.125h.2c.1 0 .211.088.224.2l1.41 8.403c.025.162-.088.275-.237.275H84.39c-.113 0-.225-.1-.237-.2l-.562-3.864h-.025l-2.096 4.052a.29.29 0 01-.212.137h-.224a.27.27 0 01-.212-.137l-2.109-4.052h-.025l-.548 3.864c-.013.1-.113.2-.238.2h-1.471c-.15 0-.262-.113-.238-.275l1.41-8.403m10.997.167c0-.124.1-.237.237-.237h5.165c.137 0 .237.113.237.237V23.3c0 .125-.1.238-.237.238h-3.456v1.55h2.845c.124 0 .237.113.237.238v1.363a.237.237 0 01-.237.238h-2.845v1.688h3.456c.137 0 .237.112.237.237v1.364c0 .124-.1.237-.237.237h-5.165a.237.237 0 01-.237-.237v-8.279m8.46-.142c0-.125.113-.225.237-.225h.312l4.978 4.802h.013v-4.44c0-.124.1-.237.237-.237h1.497c.124 0 .237.113.237.238v8.415c0 .125-.113.225-.237.225h-.2a.365.365 0 01-.162-.062l-4.928-4.964h-.012v4.664c0 .124-.1.237-.238.237H97.31a.246.246 0 01-.237-.237l-.013-8.416m11.95 1.743h-1.783a.237.237 0 01-.237-.238v-1.363c0-.124.1-.237.237-.237h5.539c.138 0 .237.113.237.237V23.3c0 .125-.1.238-.237.238h-1.784v6.678a.246.246 0 01-.237.237h-1.497a.246.246 0 01-.237-.237v-6.678M36.397 8.993c0 2.089-.149 4.371-2.83 4.371-2.68 0-2.829-2.282-2.829-4.371V.53H26.57v9.039c0 2.068.085 4.116 1.68 5.67 1.34 1.323 3.446 1.792 5.318 1.792 1.871 0 3.978-.469 5.317-1.792 1.596-1.554 1.68-3.602 1.68-5.67V.53h-4.168v8.463M4.28.53H.11v16.073h8.748l1.296-3.539H4.279V.53"/><path fill="#2b8497" d="M16.87 0c4.615 0 8.87 3.412 8.87 8.272 0 5.2-3.724 8.868-8.87 8.868-2.444 0-4.56-.834-6.115-2.257l.67-1.822.177-.48.116-.302h-.005l.045-.12-2.96-.018A9.466 9.466 0 018 8.27C8 3.412 12.253 0 16.87 0zm4.53 8.292c0-2.216-2.042-4.242-4.53-4.242-2.489 0-4.532 2.026-4.532 4.242 0 2.773 2.043 4.798 4.531 4.798 2.489 0 4.531-2.025 4.531-4.798zM106.958.53h-4.552L96.65 15.526V.53h-4.169v9.828h-.04L84.802.53h-4.17v14.535L75.174.53H70.62l-5.771 15.034V.53H60.68v16.073h9.929v-.31c0-.32.231-.593.546-.646.073-.012.146-.017.219-.027-.05-.525-.306-1.042-.62-1.248-.228-.182-.668-.26-1.077-.054-.21.123-.36.343-.424.62-.044.19-.045.4-.002.59-.75-.221-1.044-.682-1.159-1.036-.215-.665.028-1.4.366-1.753.47-.485 1.017-.654 1.505-.465 1.018.368 1.67 1.6 1.758 3.303.253-.027.507-.044.762-.051-.027-1.4-.27-2.069-.833-3.596l-.004-.013a90.96 90.96 0 01-.28-.767c-.352-.987-.147-2.24.563-3.435a7.29 7.29 0 01.82-1.08c.28.32.59.694.823 1.078.714 1.203.915 2.454.551 3.435l-.251.688-.023.064c-.57 1.55-.817 2.228-.844 3.626.249.006.498.022.747.048.076-1.696.73-2.927 1.761-3.3.497-.189 1.045-.02 1.504.465.331.339.57 1.057.363 1.72-.114.364-.41.837-1.173 1.067a1.37 1.37 0 00-.007-.626c-.069-.268-.216-.47-.428-.587-.391-.197-.846-.126-1.052.05-.323.188-.584.707-.635 1.252.086.012.172.018.257.032a.655.655 0 01.547.647v.31h9.914v-9.85h.043l7.635 9.85h8.18l.543-1.368 1.875-5.104 1.56-4.635h.043l1.702 5.117h-1.742l-1.174 3.196h4.043l1.042 2.793h4.445L106.958.53M42.31 16.603h4.169V.53H42.31zm13.24-9.798l-1.063-.32c-.722-.236-1.85-.597-1.85-1.536 0-.896 1.021-1.342 1.787-1.342 1.021 0 1.998.426 2.765 1.065l1.66-3.24C57.424.622 55.445.11 53.828.11c-3.212 0-5.53 2.133-5.53 5.394 0 3.112 1.722 3.794 4.338 4.54.894.257 2.532.662 2.532 1.834 0 1.13-1.042 1.621-2.02 1.621-1.426 0-3.032-1.07-4.075-1.988l-1.413 3.693c1.638 1.152 3.616 1.834 5.637 1.834 1.617 0 3.296-.448 4.552-1.515 1.276-1.087 1.659-2.729 1.659-4.327 0-2.6-1.723-3.73-3.957-4.391"/></svg>